<?xml version="1.0" encoding="utf-8"?>
<!-- Generator: Adobe Illustrator 16.0.0, SVG Export Plug-In . SVG Version: 6.00 Build 0)  -->
<!DOCTYPE svg PUBLIC "-//W3C//DTD SVG 1.1//EN" "http://www.w3.org/Graphics/SVG/1.1/DTD/svg11.dtd">
<svg version="1.1" id="Layer_1" xmlns="http://www.w3.org/2000/svg" xmlns:xlink="http://www.w3.org/1999/xlink" x="0px" y="0px"
	 width="200px" height="100px" viewBox="0 0 200 100" enable-background="new 0 0 200 100" xml:space="preserve">
<g>
	<path fill="none" stroke="#231F20" stroke-width="3" stroke-miterlimit="10" d="M70.83,59.762"/>
</g>
<g>
	<path fill="#231F20" d="M82.488,39.606h-1.067c-1.9,0-2.071,1.581-2.05,2.904v1.152h2.456v1.281h-2.456v8.689h-1.43v-8.689h-1.943
		v-1.281h1.943V42.51c0-2.391,0.854-4.249,3.48-4.249h1.067V39.606z"/>
	<path fill="#231F20" d="M89.875,45.222c-0.47-0.235-1.089-0.342-1.452-0.342c-2.029,0-2.861,2.39-2.861,5.039v3.714h-1.431v-9.97
		h1.431v2.263c0.491-1.707,1.409-2.476,2.861-2.476c0.684,0,1.43,0.213,1.622,0.384L89.875,45.222z"/>
	<path fill="#231F20" d="M101.239,53.633h-1.431v-1.709c-0.748,1.26-2.306,1.922-3.758,1.922c-2.84,0-5.102-2.07-5.102-5.23
		c0-3.159,2.262-5.166,5.102-5.166c1.452,0,3.01,0.599,3.758,1.857v-1.645h1.431V53.633z M96.051,52.416
		c2.028,0,3.758-1.346,3.758-3.8c0-2.455-1.964-3.736-3.758-3.736c-2.07,0-3.672,1.451-3.672,3.736
		C92.379,50.835,93.98,52.416,96.051,52.416z"/>
	<path fill="#231F20" d="M105.438,53.633h-1.43v-9.97h1.43v1.645c0.619-1.303,2.156-1.857,3.309-1.857
		c2.434,0,3.864,1.664,3.844,4.376v5.807h-1.431v-5.807c0-1.836-0.876-2.967-2.413-2.967c-1.578,0-3.309,0.896-3.309,3.33V53.633z"
		/>
	<path fill="#231F20" d="M123.709,52.48c-0.939,0.875-2.221,1.365-3.607,1.365c-2.84,0-5.209-2.07-5.209-5.23
		c0-3.159,2.369-5.166,5.209-5.166c1.387,0,2.646,0.491,3.586,1.346l-1.003,1.003c-0.683-0.598-1.602-0.939-2.583-0.939
		c-2.071,0-3.801,1.451-3.801,3.757s1.729,3.822,3.801,3.822c0.981,0,1.9-0.344,2.583-0.961L123.709,52.48z"/>
	<path fill="#231F20" d="M125.154,48.616c0-3.159,2.199-5.166,5.04-5.166c2.838,0,4.888,2.007,4.888,5.166
		c0,0.213,0,0.469-0.021,0.661h-8.454c0.257,1.944,1.729,3.161,3.588,3.161c1.345,0,2.497-0.641,3.115-1.729
		c0.427,0.106,0.983,0.213,1.431,0.319c-0.811,1.773-2.541,2.818-4.546,2.818C127.354,53.846,125.154,51.775,125.154,48.616z
		 M133.63,47.954c-0.277-1.899-1.601-3.095-3.436-3.095c-1.858,0-3.311,1.195-3.588,3.095H133.63z"/>
	<path fill="#231F20" d="M138.373,50.772c0.192,0.748,0.662,1.73,2.349,1.73c1.28,0,2.113-0.641,2.113-1.581
		c0-0.662-0.385-1.281-1.431-1.537l-1.387-0.321c-1.238-0.299-2.775-0.917-2.519-3.245c0.213-1.43,1.622-2.369,3.244-2.369
		c1.537,0,2.882,0.748,3.138,2.583h-1.388c-0.171-0.768-0.896-1.216-1.75-1.216c-0.961,0-1.751,0.512-1.857,1.216
		c-0.213,1.153,0.768,1.495,1.472,1.665l1.368,0.321c1.878,0.447,2.519,1.537,2.519,2.903c0,1.729-1.579,2.924-3.65,2.924
		c-1.687,0-3.395-1.131-3.479-3.074H138.373z"/>
	<path fill="#231F20" d="M155.09,52.48c-0.94,0.875-2.222,1.365-3.608,1.365c-2.84,0-5.209-2.07-5.209-5.23
		c0-3.159,2.369-5.166,5.209-5.166c1.387,0,2.647,0.491,3.586,1.346l-1.003,1.003c-0.683-0.598-1.602-0.939-2.583-0.939
		c-2.071,0-3.801,1.451-3.801,3.757s1.729,3.822,3.801,3.822c0.981,0,1.9-0.344,2.583-0.961L155.09,52.48z"/>
	<path fill="#231F20" d="M167.001,53.633h-1.431v-1.709c-0.747,1.26-2.306,1.922-3.757,1.922c-2.84,0-5.104-2.07-5.104-5.23
		c0-3.159,2.264-5.166,5.104-5.166c1.451,0,3.01,0.599,3.757,1.857v-1.645h1.431V53.633z M161.813,52.416
		c2.026,0,3.757-1.346,3.757-3.8c0-2.455-1.964-3.736-3.757-3.736c-2.071,0-3.672,1.451-3.672,3.736
		C158.142,50.835,159.742,52.416,161.813,52.416z"/>
</g>
<g>
	<path fill="#231F20" d="M100.68,65.154h1.432v1.729c0.747-1.258,2.305-1.943,3.757-1.943c2.839,0,5.103,2.094,5.103,5.252
		c0,3.16-2.264,5.146-5.103,5.146c-1.452,0-3.01-0.578-3.757-1.836v6.447h-1.432V65.154z M105.868,66.371
		c-2.028,0-3.757,1.365-3.757,3.82s1.963,3.715,3.757,3.715c2.071,0,3.673-1.43,3.673-3.715
		C109.541,67.973,107.939,66.371,105.868,66.371z"/>
	<path fill="#231F20" d="M123.352,75.125h-1.43v-1.709c-0.748,1.26-2.307,1.922-3.758,1.922c-2.84,0-5.102-2.072-5.102-5.232
		c0-3.158,2.262-5.166,5.102-5.166c1.451,0,3.01,0.598,3.758,1.857v-1.643h1.43V75.125z M118.164,73.906
		c2.028,0,3.758-1.344,3.758-3.801c0-2.453-1.965-3.734-3.758-3.734c-2.071,0-3.672,1.451-3.672,3.734
		C114.492,72.328,116.093,73.906,118.164,73.906z"/>
	<path fill="#231F20" d="M127.874,75.125h-1.408V59.754h1.408V75.125z"/>
	<path fill="#231F20" d="M140.596,75.125h-1.432v-1.709c-0.747,1.26-2.306,1.922-3.758,1.922c-2.839,0-5.102-2.072-5.102-5.232
		c0-3.158,2.263-5.166,5.102-5.166c1.452,0,3.011,0.598,3.758,1.857v-1.643h1.432V75.125z M135.406,73.906
		c2.03,0,3.758-1.344,3.758-3.801c0-2.453-1.964-3.734-3.758-3.734c-2.069,0-3.671,1.451-3.671,3.734
		C131.735,72.328,133.337,73.906,135.406,73.906z"/>
	<path fill="#231F20" d="M151.844,66.436l-6.724,7.279h6.724v1.41h-8.646V73.82l6.618-7.258h-6.255v-1.408h8.283V66.436z"/>
	<path fill="#231F20" d="M162.411,66.436l-6.727,7.279h6.727v1.41h-8.646V73.82l6.618-7.258h-6.254v-1.408h8.282V66.436z"/>
	<path fill="#231F20" d="M165.911,60.414c0.598,0,1.09,0.428,1.09,1.025s-0.492,1.025-1.09,1.025c-0.597,0-1.089-0.428-1.089-1.025
		S165.314,60.414,165.911,60.414z M166.594,65.154h-1.408v9.971h1.408V65.154z"/>
</g>
<circle fill="#231F20" cx="59.939" cy="35.964" r="4.881"/>
<circle fill="#231F20" cx="187.743" cy="24.683" r="4.88"/>
<circle fill="#231F20" cx="194.995" cy="81.135" r="4.88"/>
<circle fill="#231F20" cx="166.655" cy="2.556" r="2.44"/>
<circle fill="#231F20" cx="181.745" cy="56.732" r="2.441"/>
<circle fill="#231F20" cx="157.439" cy="96.725" r="2.44"/>
<g>
	<path fill="#231F20" d="M142.714,20.929h0.696v0.841c0.363-0.613,1.122-0.945,1.828-0.945c1.383,0,2.483,1.019,2.483,2.556
		c0,1.538-1.101,2.504-2.483,2.504c-0.706,0-1.465-0.279-1.828-0.892v3.137h-0.696V20.929z M145.238,21.521
		c-0.987,0-1.828,0.664-1.828,1.859c0,1.195,0.956,1.808,1.828,1.808c1.008,0,1.788-0.697,1.788-1.808
		C147.026,22.299,146.246,21.521,145.238,21.521z"/>
	<path fill="#231F20" d="M149.824,25.78h-0.696V18.3h0.696v3.428c0.301-0.634,1.049-0.904,1.61-0.904c1.185,0,1.881,0.81,1.87,2.13
		v2.825h-0.696v-2.825c0-0.895-0.426-1.445-1.174-1.445c-0.769,0-1.61,0.437-1.61,1.622V25.78z"/>
	<path fill="#231F20" d="M154.65,23.338c0-1.538,1.152-2.514,2.535-2.514s2.535,0.977,2.535,2.514s-1.152,2.545-2.535,2.545
		S154.65,24.876,154.65,23.338z M159.035,23.338c0-1.122-0.841-1.829-1.85-1.829c-1.007,0-1.85,0.708-1.85,1.829
		s0.843,1.859,1.85,1.859C158.194,25.198,159.035,24.46,159.035,23.338z"/>
	<path fill="#231F20" d="M161.325,25.78v-4.228h-0.874v-0.623h0.874v-1.819h0.695v1.819h1.028v0.623h-1.028v4.228H161.325z"/>
	<path fill="#231F20" d="M163.777,23.338c0-1.538,1.153-2.514,2.535-2.514s2.536,0.977,2.536,2.514s-1.154,2.545-2.536,2.545
		S163.777,24.876,163.777,23.338z M168.162,23.338c0-1.122-0.841-1.829-1.85-1.829c-1.008,0-1.85,0.708-1.85,1.829
		s0.842,1.859,1.85,1.859C167.321,25.198,168.162,24.46,168.162,23.338z"/>
</g>
</svg>
